<mxfile host="app.diagrams.net" modified="2022-11-06T12:42:42.080Z" agent="5.0 (Macintosh; Intel Mac OS X 10_15_7) AppleWebKit/537.36 (KHTML, like Gecko) Chrome/107.0.0.0 Safari/537.36" etag="oA7kclvnWWNJkR6pJq9l" version="20.5.2" type="github">
  <diagram id="307WcVFmkp1FFGV7HXbk" name="第 1 页">
    <mxGraphModel dx="1072" dy="556" grid="1" gridSize="10" guides="1" tooltips="1" connect="1" arrows="1" fold="1" page="1" pageScale="1" pageWidth="827" pageHeight="1169" math="0" shadow="0">
      <root>
        <mxCell id="0" />
        <mxCell id="1" parent="0" />
        <mxCell id="2LLIWVW_UZZgvgAXtciZ-1" value="P1 &lt;br&gt;D&lt;span style=&quot;font-family: Calibri; font-size: 10.5pt; text-align: justify; background-color: initial;&quot;&gt;ashboard看板图表数据处理&lt;/span&gt;" style="rounded=1;whiteSpace=wrap;html=1;" parent="1" vertex="1">
          <mxGeometry x="290" y="310" width="94" height="90" as="geometry" />
        </mxCell>
        <mxCell id="2LLIWVW_UZZgvgAXtciZ-2" value="S1 用户" style="rounded=0;whiteSpace=wrap;html=1;" parent="1" vertex="1">
          <mxGeometry x="297" y="110" width="80" height="70" as="geometry" />
        </mxCell>
        <mxCell id="2LLIWVW_UZZgvgAXtciZ-8" value="D1 图表信息" style="strokeWidth=2;html=1;shape=mxgraph.flowchart.annotation_1;align=center;pointerEvents=1;" parent="1" vertex="1">
          <mxGeometry x="284" y="500" width="100" height="60" as="geometry" />
        </mxCell>
        <mxCell id="2LLIWVW_UZZgvgAXtciZ-10" value="" style="endArrow=classic;html=1;rounded=0;edgeStyle=elbowEdgeStyle;entryX=0.2;entryY=1.002;entryDx=0;entryDy=0;startArrow=none;elbow=vertical;entryPerimeter=0;" parent="1" target="2LLIWVW_UZZgvgAXtciZ-2" edge="1">
          <mxGeometry width="50" height="50" relative="1" as="geometry">
            <mxPoint x="313" y="240" as="sourcePoint" />
            <mxPoint x="110" y="270" as="targetPoint" />
            <Array as="points">
              <mxPoint x="313" y="230" />
              <mxPoint x="320" y="210" />
              <mxPoint x="320" y="230" />
              <mxPoint x="320" y="220" />
              <mxPoint x="320" y="200" />
              <mxPoint x="315" y="200" />
              <mxPoint x="330" y="220" />
              <mxPoint x="120" y="380" />
            </Array>
          </mxGeometry>
        </mxCell>
        <mxCell id="2LLIWVW_UZZgvgAXtciZ-12" value="" style="endArrow=classic;html=1;rounded=0;entryX=0.75;entryY=0;entryDx=0;entryDy=0;edgeStyle=elbowEdgeStyle;startArrow=none;exitX=0.403;exitY=0.989;exitDx=0;exitDy=0;exitPerimeter=0;" parent="1" source="2LLIWVW_UZZgvgAXtciZ-40" target="2LLIWVW_UZZgvgAXtciZ-1" edge="1">
          <mxGeometry width="50" height="50" relative="1" as="geometry">
            <mxPoint x="360" y="250" as="sourcePoint" />
            <mxPoint x="290" y="340" as="targetPoint" />
            <Array as="points">
              <mxPoint x="360" y="270" />
              <mxPoint x="360" y="270" />
            </Array>
          </mxGeometry>
        </mxCell>
        <mxCell id="2LLIWVW_UZZgvgAXtciZ-17" value="" style="endArrow=classic;html=1;rounded=0;edgeStyle=elbowEdgeStyle;startArrow=none;" parent="1" source="XiWatOe88UxQJY5SdJ1K-2" edge="1">
          <mxGeometry width="50" height="50" relative="1" as="geometry">
            <mxPoint x="360" y="496" as="sourcePoint" />
            <mxPoint x="360" y="400" as="targetPoint" />
            <Array as="points">
              <mxPoint x="360" y="400" />
              <mxPoint x="360" y="430" />
              <mxPoint x="373" y="430" />
            </Array>
          </mxGeometry>
        </mxCell>
        <mxCell id="2LLIWVW_UZZgvgAXtciZ-35" value="" style="endArrow=none;html=1;rounded=0;exitX=0.634;exitY=1.067;exitDx=0;exitDy=0;edgeStyle=elbowEdgeStyle;elbow=vertical;entryX=0.298;entryY=-0.065;entryDx=0;entryDy=0;entryPerimeter=0;startArrow=none;exitPerimeter=0;" parent="1" source="XiWatOe88UxQJY5SdJ1K-4" target="2LLIWVW_UZZgvgAXtciZ-8" edge="1">
          <mxGeometry width="50" height="50" relative="1" as="geometry">
            <mxPoint x="349.408" y="399.90999999999997" as="sourcePoint" />
            <mxPoint x="520" y="480" as="targetPoint" />
            <Array as="points">
              <mxPoint x="370" y="480" />
            </Array>
          </mxGeometry>
        </mxCell>
        <mxCell id="2LLIWVW_UZZgvgAXtciZ-40" value="查询图表信息" style="text;html=1;align=center;verticalAlign=middle;resizable=0;points=[];autosize=1;strokeColor=none;fillColor=none;" parent="1" vertex="1">
          <mxGeometry x="320" y="210" width="100" height="30" as="geometry" />
        </mxCell>
        <mxCell id="2LLIWVW_UZZgvgAXtciZ-41" value="" style="endArrow=none;html=1;rounded=0;exitX=0.75;exitY=1;exitDx=0;exitDy=0;edgeStyle=elbowEdgeStyle;" parent="1" source="2LLIWVW_UZZgvgAXtciZ-2" edge="1">
          <mxGeometry width="50" height="50" relative="1" as="geometry">
            <mxPoint x="130" y="270" as="sourcePoint" />
            <mxPoint x="360" y="210" as="targetPoint" />
            <Array as="points">
              <mxPoint x="360" y="190" />
            </Array>
          </mxGeometry>
        </mxCell>
        <mxCell id="2LLIWVW_UZZgvgAXtciZ-39" value="信息反馈" style="text;html=1;align=center;verticalAlign=middle;resizable=0;points=[];autosize=1;strokeColor=none;fillColor=none;" parent="1" vertex="1">
          <mxGeometry x="280" y="240" width="70" height="30" as="geometry" />
        </mxCell>
        <mxCell id="2LLIWVW_UZZgvgAXtciZ-42" value="" style="endArrow=none;html=1;rounded=0;exitX=0.25;exitY=0;exitDx=0;exitDy=0;edgeStyle=elbowEdgeStyle;" parent="1" source="2LLIWVW_UZZgvgAXtciZ-1" edge="1">
          <mxGeometry width="50" height="50" relative="1" as="geometry">
            <mxPoint x="290" y="377.5" as="sourcePoint" />
            <mxPoint x="314" y="280" as="targetPoint" />
            <Array as="points">
              <mxPoint x="314" y="300" />
              <mxPoint x="314" y="280" />
            </Array>
          </mxGeometry>
        </mxCell>
        <mxCell id="XiWatOe88UxQJY5SdJ1K-2" value="输出图表信息" style="text;html=1;align=center;verticalAlign=middle;resizable=0;points=[];autosize=1;strokeColor=none;fillColor=none;" vertex="1" parent="1">
          <mxGeometry x="314" y="420" width="100" height="30" as="geometry" />
        </mxCell>
        <mxCell id="XiWatOe88UxQJY5SdJ1K-3" value="" style="endArrow=none;html=1;rounded=0;edgeStyle=elbowEdgeStyle;startArrow=none;" edge="1" parent="1" target="XiWatOe88UxQJY5SdJ1K-2">
          <mxGeometry width="50" height="50" relative="1" as="geometry">
            <mxPoint x="360" y="496" as="sourcePoint" />
            <mxPoint x="360" y="400" as="targetPoint" />
            <Array as="points" />
          </mxGeometry>
        </mxCell>
        <mxCell id="XiWatOe88UxQJY5SdJ1K-4" value="查询图表信息" style="text;html=1;align=center;verticalAlign=middle;resizable=0;points=[];autosize=1;strokeColor=none;fillColor=none;" vertex="1" parent="1">
          <mxGeometry x="250" y="440" width="100" height="30" as="geometry" />
        </mxCell>
        <mxCell id="XiWatOe88UxQJY5SdJ1K-5" value="" style="endArrow=none;html=1;rounded=0;exitX=0.25;exitY=1;exitDx=0;exitDy=0;edgeStyle=elbowEdgeStyle;elbow=vertical;entryX=0.634;entryY=-0.081;entryDx=0;entryDy=0;entryPerimeter=0;" edge="1" parent="1" source="2LLIWVW_UZZgvgAXtciZ-1" target="XiWatOe88UxQJY5SdJ1K-4">
          <mxGeometry width="50" height="50" relative="1" as="geometry">
            <mxPoint x="313.5" y="400" as="sourcePoint" />
            <mxPoint x="313.79999999999995" y="496.0999999999999" as="targetPoint" />
            <Array as="points" />
          </mxGeometry>
        </mxCell>
        <mxCell id="XiWatOe88UxQJY5SdJ1K-6" value="" style="endArrow=classic;html=1;rounded=0;entryX=0.301;entryY=-0.044;entryDx=0;entryDy=0;entryPerimeter=0;exitX=0.64;exitY=1.067;exitDx=0;exitDy=0;exitPerimeter=0;" edge="1" parent="1" source="XiWatOe88UxQJY5SdJ1K-4" target="2LLIWVW_UZZgvgAXtciZ-8">
          <mxGeometry width="50" height="50" relative="1" as="geometry">
            <mxPoint x="270" y="420" as="sourcePoint" />
            <mxPoint x="310" y="490" as="targetPoint" />
            <Array as="points" />
          </mxGeometry>
        </mxCell>
      </root>
    </mxGraphModel>
  </diagram>
</mxfile>
